# xmcd
#
# Track frame offsets: 
#        150
#        30776
#        70489
#        97141
#        110701
#        128586
#        152245
#        201966
#        260285
#
# Disc length: 3709 seconds
#
# Revision: 0
# Processed by: cddbd v1.5.1PL2 Copyright (c) Steve Scherf et al.
# Submitted via: ExactAudioCopy v0.95b4
#
DISCID=7a0e7b09
DTITLE=James Cotton Blues Band - 1969 Texas International Pop Festival
DYEAR=1900
DGENRE=
TTITLE0=Cut You Loose
TTITLE1=Fallin' Rain
TTITLE2=Hear Attack
TTITLE3=Knock On Wood
TTITLE4=Nine Below Zero
TTITLE5=Dust My Broom
TTITLE6=The Creeper
TTITLE7=Turn On Your Lovelight
TTITLE8=Please, Please, Please
EXTD=
EXTT0=
EXTT1=
EXTT2=
EXTT3=
EXTT4=
EXTT5=
EXTT6=
EXTT7=
EXTT8=
PLAYORDER=
